<svg xmlns="http://www.w3.org/2000/svg" width="59" height="59" viewBox="0 0 59 59">
  <g id="UserDefault" transform="translate(-526 -840.05)">
    <circle id="Ellipse_13" data-name="Ellipse 13" cx="29.5" cy="29.5" r="29.5" transform="translate(526 840.05)" fill="#9d9aef"/>
    <g id="avatar" transform="translate(504.421 852.671)">
      <g id="Group_536" data-name="Group 536" transform="translate(36.073)">
        <path id="Path_15" data-name="Path 15" d="M144.447,18.675h.23a6.623,6.623,0,0,0,5.06-2.189c2.763-3.115,2.3-8.455,2.254-8.964C151.81,3.7,150,1.866,148.509,1.012A7.98,7.98,0,0,0,144.648,0h-.122a7.992,7.992,0,0,0-3.861.983c-1.507.854-3.345,2.684-3.524,6.538-.05.51-.51,5.849,2.254,8.964A6.6,6.6,0,0,0,144.447,18.675ZM139.057,7.7c0-.022.007-.043.007-.057.237-5.146,3.89-5.7,5.455-5.7h.086c1.938.043,5.232.833,5.455,5.7a.14.14,0,0,0,.007.057c.007.05.51,4.931-1.773,7.5a4.7,4.7,0,0,1-3.7,1.536h-.072a4.689,4.689,0,0,1-3.689-1.536C138.561,12.646,139.049,7.744,139.057,7.7Z" transform="translate(-129.832)" fill="#fff"/>
        <path id="Path_16" data-name="Path 16" d="M65.551,268.169v-.022c0-.057-.007-.115-.007-.179-.043-1.421-.136-4.744-3.251-5.806l-.072-.022a20.709,20.709,0,0,1-5.957-2.713.969.969,0,0,0-1.112,1.586,22.354,22.354,0,0,0,6.553,2.993c1.672.6,1.859,2.383,1.909,4.019a1.442,1.442,0,0,0,.007.179,13.027,13.027,0,0,1-.151,2.218,26.413,26.413,0,0,1-12.653,2.943,26.566,26.566,0,0,1-12.66-2.95,12.333,12.333,0,0,1-.151-2.218c0-.057.007-.115.007-.179.05-1.636.237-3.423,1.909-4.019a22.561,22.561,0,0,0,6.553-2.993.969.969,0,0,0-1.112-1.586,20.482,20.482,0,0,1-5.957,2.713c-.029.007-.05.014-.072.022-3.115,1.069-3.208,4.392-3.251,5.806a1.44,1.44,0,0,1-.007.179v.022a11.006,11.006,0,0,0,.366,3.251.921.921,0,0,0,.373.452c.215.144,5.376,3.431,14.01,3.431s13.794-3.294,14.01-3.431a.96.96,0,0,0,.373-.452A11.547,11.547,0,0,0,65.551,268.169Z" transform="translate(-36.073 -240.638)" fill="#fff"/>
      </g>
    </g>
  </g>
</svg>
